<svg width="18" height="18" fill="none" xmlns="http://www.w3.org/2000/svg"><path d="M17.99 4.277l-1.014 5.785a2.094 2.094 0 01-.686 1.224c-.36.311-.813.482-1.281.482H5.344l.364 2.076h8.959c.425 0 .838.14 1.181.4.343.26.598.627.726 1.048.13.42.126.872-.01 1.29a2.063 2.063 0 01-.741 1.036 1.95 1.95 0 01-1.188.381 1.955 1.955 0 01-1.175-.42 2.08 2.08 0 01-.709-1.06 2.153 2.153 0 01.03-1.29H7.885c.118.343.146.713.082 1.072a2.112 2.112 0 01-.445.97 2 2 0 01-.854.61 1.93 1.93 0 01-1.032.084 1.97 1.97 0 01-.935-.463 2.08 2.08 0 01-.587-.886 2.152 2.152 0 01-.08-1.073 2.11 2.11 0 01.446-.97L2.17 1.384H.668a.654.654 0 01-.472-.202A.706.706 0 010 .692C0 .51.07.332.195.202A.654.654 0 01.667 0H2.17c.312 0 .615.114.854.321a1.4 1.4 0 01.458.816L3.89 3.46h13.443a.647.647 0 01.512.249.702.702 0 01.144.567z" fill="#5856D2"/></svg>