<svg width="18" height="15" fill="none" xmlns="http://www.w3.org/2000/svg"><path fill-rule="evenodd" clip-rule="evenodd" d="M9.825.9a.825.825 0 01.82.729l.005.096a.825.825 0 001.644.097l.006-.097A.825.825 0 0113.125.9h1.65a2.475 2.475 0 012.475 2.475v8.25a2.475 2.475 0 01-2.475 2.475h-1.65a.825.825 0 01-.82-.728l-.005-.097a.825.825 0 00-1.644-.096l-.006.096a.825.825 0 01-.825.825h-6.6A2.475 2.475 0 01.75 11.625v-8.25A2.475 2.475 0 013.225.9h6.6zm1.65 7.425a.825.825 0 00-.825.825v.825a.825.825 0 001.65 0V9.15a.825.825 0 00-.825-.825zm0-4.125a.825.825 0 00-.82.729l-.005.096v.825a.825.825 0 001.644.097l.006-.097v-.825a.825.825 0 00-.825-.825z" fill="#fff"/></svg>