<svg width="18" height="9" fill="none" xmlns="http://www.w3.org/2000/svg"><path d="M15.524 3.096a11.55 11.55 0 001.462-1.51.625.625 0 00-.972-.785 10.059 10.059 0 01-1.663 1.637l-.012.009A8.562 8.562 0 019 4.25a8.562 8.562 0 01-5.34-1.804l-.014-.01A10.055 10.055 0 011.986.8a.625.625 0 00-.972.785c.44.546.928 1.05 1.46 1.508L.95 5.732a.625.625 0 001.083.625l1.444-2.502a9.655 9.655 0 002.754 1.272l-.455 2.577a.625.625 0 001.231.216l.447-2.533c1.023.15 2.062.15 3.085.001l.447 2.534a.625.625 0 001.23-.218l-.453-2.575a9.652 9.652 0 002.757-1.272l1.436 2.488a.625.625 0 101.082-.625l-1.514-2.624z" fill="#5856D2"/></svg>