<svg width="20" height="16" fill="none" xmlns="http://www.w3.org/2000/svg"><path d="M19.172 2.789L15.31.582 15.306.58a.624.624 0 00-.038-.02l-.019-.008-.035-.014L15.19.53l-.028-.008-.033-.008-.02-.004a.63.63 0 00-.042-.006l-.016-.001A.621.621 0 0015.005.5H12.5a.625.625 0 00-.625.625 1.875 1.875 0 11-3.75 0A.625.625 0 007.5.5H4.994a.62.62 0 00-.04.002l-.022.002-.036.005-.026.005-.028.007L4.81.53l-.02.007a.61.61 0 00-.038.015L4.733.56a.634.634 0 00-.04.02L4.69.582.828 2.79a1.25 1.25 0 00-.497 1.644L1.768 7.31A1.243 1.243 0 002.886 8h1.49v6.25a1.252 1.252 0 001.25 1.25h8.75a1.252 1.252 0 001.25-1.25V8h1.488a1.243 1.243 0 001.118-.691l1.438-2.876a1.251 1.251 0 00-.498-1.644zM2.886 6.75L1.45 3.874l2.926-1.672V6.75h-1.49zm14.228 0h-1.489V2.202l2.927 1.672-1.438 2.876z" fill="#5856D2"/></svg>