<svg width="21" height="21" fill="none" xmlns="http://www.w3.org/2000/svg"><path fill-rule="evenodd" clip-rule="evenodd" d="M3.814 1.907v1.907H0v1.928h3.812l.012 4.953c.011 4.947.011 4.953.099 5.192.21.573.648 1 1.239 1.208.172.061.675.069 5.143.08l4.953.013V21h1.927v-3.814H21v-1.928H5.742V0H3.814v1.907zm3.824 2.86l.011.955 3.804.01 3.804.01.01 3.805.011 3.804.955.01.955.012-.013-4.01c-.012-3.587-.02-4.03-.08-4.201a1.992 1.992 0 00-1.208-1.239c-.238-.087-.27-.088-4.25-.1l-4.01-.011.011.955z" fill="#3F3F3F"/></svg>