<svg width="13" height="16" fill="none" xmlns="http://www.w3.org/2000/svg"><path d="M4.001.6a.6.6 0 01.6-.6h3.202a.6.6 0 01.6.6v.6h3.401a.6.6 0 010 1.2H.6a.6.6 0 010-1.2h3.401V.6z" fill="#9F9F9F"/><path fill-rule="evenodd" clip-rule="evenodd" d="M1.589 4.558a.4.4 0 01.397-.356h8.424a.4.4 0 01.398.356l.16 1.441a35.372 35.372 0 010 7.82l-.016.141a2.082 2.082 0 01-1.781 1.833 21.45 21.45 0 01-5.945 0 2.082 2.082 0 01-1.782-1.833l-.016-.141a35.372 35.372 0 010-7.82l.16-1.441zm3.609 2.765a.6.6 0 10-1.2 0v5.602a.6.6 0 101.2 0V7.323zm3.201 0a.6.6 0 00-1.2 0v5.602a.6.6 0 101.2 0V7.323z" fill="#9F9F9F"/></svg>