<svg width="20" height="15" fill="none" xmlns="http://www.w3.org/2000/svg"><path d="M4.545 15a2.59 2.59 0 01-1.931-.82c-.53-.547-.796-1.211-.796-1.992H.91a.864.864 0 01-.647-.27A.927.927 0 010 11.25V1.875C0 1.359.178.918.535.551.89.184 1.319.001 1.818 0h10.91c.5 0 .928.184 1.284.551.356.368.534.809.534 1.324V3.75h1.818c.287 0 .56.067.818.2.257.133.47.316.636.55l2 2.742a.84.84 0 01.136.258c.03.094.046.195.046.305v3.445a.923.923 0 01-.262.668.863.863 0 01-.647.27h-.91c0 .78-.264 1.445-.795 1.992a2.59 2.59 0 01-1.931.82 2.59 2.59 0 01-1.932-.82c-.53-.547-.796-1.211-.796-1.992H7.273c0 .78-.265 1.445-.796 1.992a2.59 2.59 0 01-1.932.82zm0-1.875c.258 0 .474-.09.649-.27a.918.918 0 00.26-.668.927.927 0 00-.261-.667.864.864 0 00-.648-.27.864.864 0 00-.647.27.927.927 0 00-.262.668.92.92 0 00.262.668c.175.18.391.27.647.269zm10.91 0c.257 0 .473-.09.648-.27a.918.918 0 00.26-.668.926.926 0 00-.261-.667.864.864 0 00-.648-.27.864.864 0 00-.647.27.926.926 0 00-.261.668.92.92 0 00.261.668c.175.18.391.27.647.269zm-.91-4.688h3.864l-2.045-2.812h-1.819v2.813z" fill="#C0C0D9"/></svg>