<svg width="11" height="11" fill="none" xmlns="http://www.w3.org/2000/svg"><path fill-rule="evenodd" clip-rule="evenodd" d="M7.603.04c-.05.022-.418.37-.818.773l-.729.733v.267L7.22 2.977l1.165 1.164h.266l.746-.743c.796-.794.833-.844.79-1.078-.018-.102-.147-.243-1.077-1.178C8.52.55 8.01.062 7.957.04a.417.417 0 00-.354 0zM5.486 2.148c-.025.01-1.231 1.202-2.68 2.65C1.053 6.545.16 7.46.14 7.518c-.035.116-.16 2.249-.137 2.346.029.114.193.28.313.315.083.025.374.017 1.19-.03.595-.035 1.122-.077 1.172-.093.06-.02.978-.916 2.733-2.672l2.642-2.642V4.47L6.896 3.314c-1.008-1.008-1.17-1.158-1.261-1.17a.414.414 0 00-.15.004z" fill="#5856D2"/></svg>