<svg width="10" height="19" fill="none" xmlns="http://www.w3.org/2000/svg"><path fill-rule="evenodd" clip-rule="evenodd" d="M2.3.04c-.471.11-.892.575-.948 1.045-.015.124.094 1.12.322 2.944.33 2.654.34 2.76.277 2.858-.037.056-.404.373-.815.704C.136 8.395-.002 8.6 0 9.288c0 .307.013.358.147.629.229.463.611.75 1.126.845.14.027 1.48.037 3.845.03l3.629-.012.296-.146a1.558 1.558 0 00.615-2.26c-.056-.087-.428-.416-.866-.768-.422-.339-.798-.662-.835-.718-.065-.1-.055-.198.277-2.86.227-1.823.336-2.819.322-2.943-.043-.356-.33-.77-.649-.932-.289-.147-.48-.156-3.004-.152C3.553.003 2.381.02 2.3.039zm1.488 11.663c0 .418.322 5.799.354 5.922.093.353.434.61.812.61a.841.841 0 00.811-.61c.033-.123.355-5.505.355-5.922v-.087H3.788v.087z" fill="#3F3F3F"/></svg>