<svg width="13" height="16" fill="none" xmlns="http://www.w3.org/2000/svg"><path d="M4 .6a.6.6 0 01.6-.6h3.2a.6.6 0 01.6.6v.6h3.399a.6.6 0 010 1.2H.599a.6.6 0 010-1.2H4V.6z" fill="#3F3F3F"/><path fill-rule="evenodd" clip-rule="evenodd" d="M1.592 4.555A.4.4 0 011.99 4.2h8.42a.4.4 0 01.397.356l.16 1.44a35.364 35.364 0 010 7.817l-.016.142a2.08 2.08 0 01-1.78 1.831 21.424 21.424 0 01-5.942 0 2.08 2.08 0 01-1.782-1.832l-.016-.141a35.357 35.357 0 010-7.815l.161-1.442zM5.2 7.32a.6.6 0 10-1.2 0v5.6a.6.6 0 101.2 0v-5.6zm3.2 0a.6.6 0 10-1.2 0v5.6a.6.6 0 001.2 0v-5.6z" fill="#3F3F3F"/></svg>