<svg width="15" height="19" fill="none" xmlns="http://www.w3.org/2000/svg"><path fill-rule="evenodd" clip-rule="evenodd" d="M6.454.055C4.906.3 3.526 1.41 2.968 2.857c-.265.686-.286.823-.305 1.958l-.018 1.04h2.098l.018-.882c.015-.687.034-.928.088-1.098.26-.827.92-1.472 1.724-1.684.28-.074.908-.074 1.188 0 .81.215 1.461.852 1.724 1.684.054.17.073.411.087 1.098l.019.881h2.09v-.88c0-.99-.048-1.364-.243-1.922A4.535 4.535 0 009.822.869 4.51 4.51 0 006.454.055zM1.331 6.848C.722 6.993.158 7.595.04 8.226.015 8.36 0 10.08 0 12.91c0 5.002-.01 4.81.273 5.247.26.4.623.67 1.052.782.208.054.903.061 5.842.061 4.923 0 5.635-.007 5.842-.061a1.805 1.805 0 001.28-1.356c.059-.278.063-9.046.005-9.357-.099-.527-.47-1-.988-1.256l-.295-.146-5.763-.006c-3.393-.003-5.826.009-5.917.03zm5.27 3.258c-.525.22-.86.65-.938 1.207a1.567 1.567 0 00.468 1.32l.189.17-.328 1.386a60.11 60.11 0 00-.329 1.433c0 .025.027.074.061.109.055.054.24.062 1.443.062 1.202 0 1.388-.008 1.442-.062.034-.035.062-.084.061-.11 0-.025-.148-.67-.329-1.432l-.328-1.386.19-.17c.769-.694.58-2.01-.354-2.471-.234-.116-.307-.132-.642-.141-.324-.01-.409.002-.605.085z" fill="#3F3F3F"/></svg>