<svg width="21" height="20" fill="none" xmlns="http://www.w3.org/2000/svg"><path fill-rule="evenodd" clip-rule="evenodd" d="M13.504.83a7.19 7.19 0 00-1.906.461c-1.948.763-3.489 2.52-3.999 4.563-.113.451-.185.9-.185 1.15v.175l.329.113c1.517.523 2.834 1.626 3.659 3.064.53.926.86 2.173.86 3.258v.382l.295.067c1.583.362 3.113.176 4.576-.556l.493-.247 1.252.494c.688.27 1.306.492 1.373.492.194 0 .437-.147.516-.313l.07-.147.025.138c.014.077.025-.072.025-.33 0-.27-.011-.395-.026-.296-.023.165-.044.123-.509-1.045l-.484-1.217.206-.4c.269-.525.436-.952.56-1.43a6.635 6.635 0 00-1.622-6.268 6.692 6.692 0 00-3.43-1.964C14.962.83 14.044.767 13.504.83zm-2.148 6.168a.663.663 0 00-.316.527c0 .202.144.437.325.529a.78.78 0 00.286.082c.31 0 .61-.301.61-.611a.647.647 0 00-.324-.53.585.585 0 00-.581.003zm2.444 0a.662.662 0 00-.316.527.78.78 0 00.082.286c.092.18.327.325.529.325.31 0 .611-.301.611-.611a.647.647 0 00-.325-.53.585.585 0 00-.58.003zm2.444 0a.662.662 0 00-.316.527.78.78 0 00.082.286c.092.18.327.325.53.325.31 0 .61-.301.61-.611a.647.647 0 00-.325-.53.585.585 0 00-.58.003zM4.97 8.16C2.519 8.464.587 10.22.105 12.585c-.088.432-.088 1.67 0 2.101.09.442.278.992.467 1.368.089.176.161.341.16.367 0 .025-.164.483-.366 1.018C.165 17.976 0 18.466 0 18.531c0 .29.311.604.599.604.065 0 .567-.165 1.114-.366a21.216 21.216 0 011.042-.367c.025 0 .19.072.367.161.38.192.92.376 1.4.477.483.102 1.556.101 2.036 0 1.17-.25 2.018-.702 2.836-1.514.831-.825 1.298-1.691 1.55-2.877.102-.475.102-1.552 0-2.027-.252-1.186-.723-2.062-1.548-2.877a6.69 6.69 0 00-.76-.652 5.933 5.933 0 00-2.038-.856c-.302-.06-1.355-.11-1.628-.076zM2.8 13.108a.662.662 0 00-.316.527c0 .302.308.611.608.611.313 0 .614-.3.614-.61a.647.647 0 00-.325-.53.585.585 0 00-.58.002zm2.444 0a.662.662 0 00-.316.527c0 .302.309.611.608.611.313 0 .614-.3.614-.61a.647.647 0 00-.325-.53.585.585 0 00-.58.002zm2.445 0a.662.662 0 00-.317.527c0 .302.309.611.608.611.313 0 .615-.3.615-.61a.647.647 0 00-.325-.53.585.585 0 00-.581.002z" fill="#3F3F3F"/></svg>