<svg width="18" height="18" fill="none" xmlns="http://www.w3.org/2000/svg"><path fill-rule="evenodd" clip-rule="evenodd" d="M14.51.06c-.046.033-.293.401-.549.818l-.465.76-.842.21c-.463.116-.879.234-.923.263a.424.424 0 00-.155.39c.013.054.282.413.597.799l.573.7-.049.671c-.078 1.073-.073 1.197.05 1.328.162.172.286.149 1.176-.22l.795-.33.79.33c.778.323.97.372 1.125.288.17-.093.183-.224.117-1.185l-.06-.893.577-.701c.553-.67.578-.708.578-.874 0-.28-.076-.32-1.03-.56-.467-.118-.854-.236-.89-.273a10.284 10.284 0 01-.459-.714C14.988.08 14.92 0 14.733 0a.453.453 0 00-.223.06zM2.191 2.524C1.34 2.671.63 3.223.244 4.036c-.26.548-.251.378-.24 5.03l.012 4.198.103.29c.287.8.87 1.393 1.652 1.678l.333.121 1.262.012 1.263.013-.006.835-.005.835.133.25c.303.57.907.829 1.497.642.239-.075.426-.206 1.886-1.325l1.62-1.242h1.941c1.806 0 1.962-.006 2.24-.078a2.556 2.556 0 001.109-.623 2.71 2.71 0 00.796-1.31c.066-.238.071-.465.071-3.328V6.96l-.598-.244c-.436-.177-.62-.235-.677-.212l-.658.28c-.578.245-.582.246-.967.249-.348.002-.407-.009-.58-.103a1.389 1.389 0 01-.612-.659l-.116-.25.026-.656c.014-.36.036-.744.048-.853l.023-.197-.472-.571c-.482-.583-.601-.78-.65-1.075l-.029-.167-4.137-.005c-2.275-.003-4.22.009-4.32.026zm2.573 4.472c-.14.062-.269.25-.305.443-.037.2.106.46.309.56.162.08.213.082 3.306.082 3.436 0 3.297.009 3.498-.235.189-.228.13-.617-.121-.81-.101-.077-.17-.079-3.333-.087-2.711-.008-3.25 0-3.354.047zM4.726 9.89c-.339.213-.367.65-.058.909l.142.119h1.812c2.025 0 1.953.01 2.111-.278.139-.25.093-.494-.13-.708l-.104-.098-1.825-.01c-1.755-.01-1.829-.008-1.948.066z" fill="#3F3F3F"/></svg>