<svg width="17" height="20" fill="none" xmlns="http://www.w3.org/2000/svg"><path fill-rule="evenodd" clip-rule="evenodd" d="M4.528 2.716a3644.348 3644.348 0 00-4 2.273c-.082.049-.016.091 1.361.873.797.451 1.478.832 1.514.845.045.017 1.277-.662 4.052-2.234 2.193-1.243 3.987-2.268 3.987-2.278C11.442 2.177 8.52.511 8.467.5c-.015-.003-1.788.994-3.94 2.216zm4.465 2.672l-3.981 2.26.194.105c.107.057.884.493 1.726.97l1.531.865.801-.453c3.602-2.037 7.208-4.093 7.196-4.104-.047-.047-3.409-1.907-3.443-1.906-.023.001-1.834 1.02-4.024 2.263zm4.086 3.036L9.176 10.64v8.86l.22-.123 3.912-2.218L17 15.064v-4.43c0-2.436-.004-4.428-.01-4.427-.005.001-1.765.999-3.911 2.217zM.002 10.67l.01 4.39 3.835 2.179a424.59 424.59 0 003.865 2.181c.015.001.028-1.973.027-4.388v-4.39l-1.653-.933-1.653-.933-.01 1.054c-.007.729-.023 1.054-.051 1.054-.023 0-.345-.155-.716-.344l-.676-.343-.01-1.133-.01-1.132-1.456-.825A55.58 55.58 0 00.02 6.28c-.015 0-.024 1.974-.018 4.389z" fill="#3F3F3F"/></svg>