<svg width="20" height="20" fill="none" xmlns="http://www.w3.org/2000/svg"><circle cx="10" cy="10" r="10" fill="#3F3F3F"/><path d="M11.587 6.127a1.98 1.98 0 00-1.474-.627c-.58 0-1.104.221-1.477.623-.376.406-.56.957-.517 1.553.086 1.175.98 2.132 1.994 2.132s1.907-.956 1.994-2.132c.043-.59-.141-1.14-.52-1.55zm1.91 7.988H6.73a.596.596 0 01-.466-.214.679.679 0 01-.138-.56c.163-.9.67-1.656 1.465-2.187.708-.472 1.604-.731 2.523-.731.92 0 1.816.26 2.523.73.796.531 1.303 1.288 1.465 2.188a.679.679 0 01-.138.56.597.597 0 01-.465.214z" fill="#fff"/></svg>