<svg width="16" height="17" fill="none" xmlns="http://www.w3.org/2000/svg"><path d="M14.5 3.988a.512.512 0 00-.106-.296.544.544 0 00-.017-.02l-.008-.01-.008-.007a.523.523 0 00-.055-.05l-.02-.015-.02-.012-.022-.014-.02-.01-.023-.012-.023-.009-.022-.008-.024-.007-.023-.006a.48.48 0 00-.098-.011L14 3.5H1.99a.52.52 0 00-.075.008l-.024.004-.023.006-.024.007-.023.009-.022.008-.023.012-.02.01a.5.5 0 00-.023.014l-.018.012a.465.465 0 00-.076.065l-.008.007-.008.01a.523.523 0 00-.104.193.511.511 0 00-.018.123L1.5 4v8.5a1.001 1.001 0 001 1h11a1.002 1.002 0 001-1V3.988zm-12 1.149L6.17 8.5 2.5 11.863V5.137zm.785 7.363L6.91 9.178l.753.69a.5.5 0 00.676 0l.753-.69 3.624 3.322h-9.43zm6.546-4l3.67-3.363v6.727L9.83 8.5z" fill="#3F3F3F" opacity=".5"/></svg>