<svg width="28" height="28" fill="none" xmlns="http://www.w3.org/2000/svg"><path d="M14 0c7.732 0 14 6.268 14 14s-6.268 14-14 14S0 21.732 0 14 6.268 0 14 0zm0 2.1a11.9 11.9 0 00-8.498 20.36A11.901 11.901 0 0014 25.9a11.9 11.9 0 000-23.799V2.1zM9.048 17.896A6.286 6.286 0 0014 20.301a6.289 6.289 0 004.948-2.4 1.05 1.05 0 111.648 1.303A8.387 8.387 0 0114 22.4a8.385 8.385 0 01-6.601-3.206 1.05 1.05 0 011.649-1.299zM9.8 9.45a1.75 1.75 0 11.099 3.497 1.75 1.75 0 01-.1-3.497zm8.398 0a1.75 1.75 0 11.099 3.498 1.75 1.75 0 01-.099-3.498z" fill="#9F9F9F"/></svg>