<svg width="147" height="111" fill="none" xmlns="http://www.w3.org/2000/svg"><path d="M132.916 10.488h-26.407V0H40.491v10.488H14.084a14.135 14.135 0 00-9.959 4.096A13.934 13.934 0 000 24.472v72.544c0 3.709 1.484 7.266 4.125 9.888A14.133 14.133 0 0014.084 111h118.832c3.735 0 7.318-1.473 9.959-4.096A13.933 13.933 0 00147 97.016V24.472c0-3.708-1.484-7.265-4.125-9.888a14.135 14.135 0 00-9.959-4.096zm-59.42 92.646c-23.534 0-42.673-19.019-42.673-42.386 0-23.368 19.14-42.387 42.673-42.387 23.535 0 42.689 19.019 42.689 42.387 0 23.367-19.154 42.372-42.689 42.372v.014zm0-70.795a28.79 28.79 0 00-10.95 2.164 28.629 28.629 0 00-9.282 6.16 28.4 28.4 0 00-6.202 9.218 28.238 28.238 0 00.003 21.746 28.401 28.401 0 006.204 9.217 28.631 28.631 0 009.284 6.158 28.792 28.792 0 0010.95 2.162 28.723 28.723 0 0020.236-8.326 28.314 28.314 0 008.379-20.094 28.314 28.314 0 00-8.384-20.092 28.722 28.722 0 00-20.237-8.32v.007z" fill="#9A9AAD"/></svg>