<svg width="12" height="12" fill="none" xmlns="http://www.w3.org/2000/svg"><path d="M9.734.002h-8.11C.71.002.013.7.013 1.615v8.11c0 .915.697 1.613 1.613 1.613h8.109c.915 0 1.613-.698 1.613-1.613v-8.11C11.348.7 10.65.002 9.735.002zM5.679 9.071c1.875 0 3.4-1.483 3.4-3.27a3.11 3.11 0 00-.13-.916h.96v4.622a.437.437 0 01-.437.436H1.886a.437.437 0 01-.436-.436V4.842h1.003a3.32 3.32 0 00-.13.915c-.044 1.831 1.482 3.314 3.356 3.314zm0-1.308c-1.22 0-2.18-.96-2.18-2.137S4.46 3.49 5.68 3.49c1.221 0 2.18.96 2.18 2.136 0 1.221-.959 2.137-2.18 2.137zm4.186-4.665c0 .261-.218.48-.48.48h-1.22a.484.484 0 01-.48-.48V1.92c0-.261.218-.48.48-.48h1.22c.262 0 .48.219.48.48v1.178z" fill="#5856D2"/></svg>