<svg width="16" height="14" fill="none" xmlns="http://www.w3.org/2000/svg"><path d="M11.096.505a4.07 4.07 0 012.67 1.186l.14.147a4.07 4.07 0 011.053 2.726l-.014.38c-.136 1.889-1.288 3.752-3.28 5.544v.001a19.356 19.356 0 01-3.139 2.29l-.007.004a.975.975 0 01-.841.054l-.113-.054a19.145 19.145 0 01-3.28-2.41c-1.536-1.414-3.16-3.451-3.16-5.809l.013-.318a4.06 4.06 0 01.755-2.058l.196-.25A4.067 4.067 0 013.904.708L4.21.62A4.066 4.066 0 016.4.685l.301.106c.502.2.956.5 1.34.877.303-.299.652-.55 1.035-.741L9.29.828A4.056 4.056 0 0110.895.5l.2.005z" fill="#EA5252" stroke="#fff"/></svg>