<svg width="14" height="14" fill="none" xmlns="http://www.w3.org/2000/svg"><path d="M3.146 11.39l-1.508 1.508c-.208.208-.445.254-.713.14-.268-.115-.402-.32-.402-.615V2.213c0-.361.129-.67.386-.926.257-.257.565-.385.926-.386h10.489c.36 0 .669.129.926.386s.385.565.385.925v7.867c0 .36-.129.67-.385.926a1.26 1.26 0 01-.927.385H3.146zm1.31-4.589a.635.635 0 00.468-.189.632.632 0 00.188-.466.637.637 0 00-.188-.467.633.633 0 00-.467-.189.633.633 0 00-.467.189.637.637 0 00-.189.467c0 .185.063.34.189.467a.63.63 0 00.467.188zm2.623 0a.635.635 0 00.467-.189.632.632 0 00.189-.466.637.637 0 00-.19-.467.633.633 0 00-.466-.189.633.633 0 00-.467.189.637.637 0 00-.189.467c0 .185.063.34.19.467a.63.63 0 00.466.188zm2.622 0a.635.635 0 00.468-.189.631.631 0 00.188-.466.637.637 0 00-.189-.467.633.633 0 00-.467-.189.633.633 0 00-.466.189.637.637 0 00-.19.467c0 .185.063.34.19.467a.63.63 0 00.466.188z" fill="#5856D2"/></svg>