<svg width="16" height="17" fill="none" xmlns="http://www.w3.org/2000/svg"><path d="M7.997 11.98c-.445 0-.825-.158-1.14-.475a1.563 1.563 0 01-.472-1.143c0-.445.158-.825.475-1.14a1.564 1.564 0 011.144-.472c.446 0 .826.159 1.14.476.314.317.471.698.472 1.143 0 .445-.158.825-.476 1.14a1.562 1.562 0 01-1.143.472M4.375 4.25h7.25L13.491.5H2.51l1.865 3.75zm.256 12.25h6.738c1.287 0 2.38-.45 3.28-1.351.9-.9 1.351-1.996 1.351-3.286 0-.539-.092-1.063-.277-1.574a4.628 4.628 0 00-.8-1.395L11.881 5.25H4.119L1.077 8.894c-.349.42-.615.884-.8 1.395A4.59 4.59 0 000 11.863c0 1.29.45 2.385 1.351 3.286.9.9 1.994 1.351 3.28 1.351z" fill="#C0C0D9"/></svg>