<svg width="22" height="21" fill="none" xmlns="http://www.w3.org/2000/svg"><g clip-path="url(#clip0_735_10841)" fill="#C0C0D9"><path d="M16.6 16.95H9.82v-4.52H8.69v4.52H5.3v-4.52H4.17v4.52a1.13 1.13 0 001.13 1.13h11.3a1.13 1.13 0 001.13-1.13v-4.52H16.6v4.52zm3.27-9.453l-2.305-4.61a1.13 1.13 0 00-1.01-.627H5.344a1.13 1.13 0 00-1.012.627l-2.305 4.61a1.13 1.13 0 00-.118.509v1.74c0 .264.091.52.26.723a2.639 2.639 0 002 .904 2.67 2.67 0 001.695-.604 2.672 2.672 0 003.39 0 2.672 2.672 0 003.39 0 2.672 2.672 0 003.39 0 2.667 2.667 0 003.689-.294 1.13 1.13 0 00.265-.723V8.006c.001-.177-.04-.35-.118-.509zm-10.615.639v.859l-.464.61a1.531 1.531 0 01-2.469 0l-.457-.633v-.836L7.328 3.39H9.82l-.565 4.746zm6.78.836l-.458.633a1.531 1.531 0 01-2.47 0l-.462-.633v-.836l-.566-4.746h2.515l1.44 4.746v.836z"/></g><defs><clipPath id="clip0_735_10841"><path fill="#fff" transform="translate(.78)" d="M0 0h20.34v20.34H0z"/></clipPath></defs></svg>