<svg width="16" height="11" fill="none" xmlns="http://www.w3.org/2000/svg"><path d="M1 5.5l-.464-.186a.5.5 0 000 .372L1 5.5zm14 0l.464.186a.5.5 0 000-.372L15 5.5zM8 10c-2.314 0-3.939-1.152-5.003-2.334a9.368 9.368 0 01-1.449-2.164 5.068 5.068 0 01-.084-.187v-.001L1 5.5a49.73 49.73 0 00-.464.186.353.353 0 01.008.02 3.616 3.616 0 00.1.222 10.367 10.367 0 001.61 2.406C3.438 9.652 5.313 11 8 11v-1zM1 5.5l.464.186a.868.868 0 01.018-.043l.066-.145a9.368 9.368 0 011.449-2.164C4.06 2.152 5.686 1 8 1V0C5.314 0 3.439 1.348 2.253 2.666a10.367 10.367 0 00-1.61 2.406 6.05 6.05 0 00-.107.241L1 5.5zM8 1c2.314 0 3.939 1.152 5.003 2.334a9.37 9.37 0 011.449 2.164 4.705 4.705 0 01.08.18l.004.007v.001L15 5.5l.464-.186v-.002l-.003-.004a.656.656 0 00-.026-.063 9.094 9.094 0 00-.39-.773 10.365 10.365 0 00-1.298-1.806C12.56 1.348 10.686 0 8 0v1zm7 4.5a68.887 68.887 0 01-.464-.186l-.003.008-.015.035-.066.145a9.37 9.37 0 01-1.449 2.164C11.94 8.848 10.314 10 8 10v1c2.686 0 4.561-1.348 5.747-2.666a10.365 10.365 0 001.61-2.406 6.164 6.164 0 00.104-.236l.002-.004v-.001h.001L15 5.5zM8 7a1.5 1.5 0 01-1.5-1.5h-1A2.5 2.5 0 008 8V7zm1.5-1.5A1.5 1.5 0 018 7v1a2.5 2.5 0 002.5-2.5h-1zM8 4a1.5 1.5 0 011.5 1.5h1A2.5 2.5 0 008 3v1zm0-1a2.5 2.5 0 00-2.5 2.5h1A1.5 1.5 0 018 4V3z" fill="#9F9F9F"/></svg>