<svg width="36" height="36" fill="none" xmlns="http://www.w3.org/2000/svg"><path d="M35.997 18c0 9.941-8.058 18-17.998 18C8.059 36 0 27.941 0 18S8.058 0 17.999 0c9.94 0 17.998 8.059 17.998 18z" fill="#ED1E24"/><path d="M20.182 18.95H18.92c-1.986 0-3.91-1.382-3.91-4.838 0-3.6 1.804-5.069 3.639-5.069h1.534v9.907zM22.168 7.2h-3.43c-3.37 0-6.226 2.448-6.226 7.2 0 2.851 1.383 4.954 3.85 5.99l-4.602 7.949c-.151.26 0 .46.24.46h2.136c.18 0 .301-.057.361-.2l4.181-7.805h1.504v7.804c0 .087.09.202.21.202h1.866c.18 0 .24-.087.24-.23V7.488c0-.201-.12-.288-.33-.288z" fill="#fff"/></svg>