<svg width="37" height="37" fill="none" xmlns="http://www.w3.org/2000/svg"><ellipse cx="18.337" cy="18.338" rx="18.337" ry="18.338" fill="#7294C7"/><path d="M27.325 23.03c0-.077-.076-.077-.076-.153-.305-.609-.99-1.37-1.903-2.207-.457-.381-.685-.686-.838-.838-.228-.304-.228-.533-.152-.837.076-.229.38-.61.914-1.294.304-.381.456-.61.685-.838 1.141-1.522 1.674-2.512 1.522-2.969l-.076-.076c-.076-.076-.152-.152-.305-.152-.152-.076-.38-.076-.608 0h-3.426l-.076.076c-.076.076-.076.076-.076.152-.305.838-.685 1.523-1.066 2.284-.228.38-.457.761-.685 1.066-.228.304-.38.533-.533.685-.152.152-.304.228-.38.38-.076.077-.229.153-.229.077-.076 0-.152 0-.152-.076l-.228-.229c-.076-.076-.076-.228-.152-.38v-3.807c0-.076-.077-.228-.077-.304l-.228-.229c-.076-.076-.228-.076-.304-.152a6.821 6.821 0 00-1.37-.152c-1.218 0-2.056.076-2.36.228-.153.076-.305.153-.38.305-.153.152-.153.228-.077.228.38.076.685.229.837.457l.076.152c.077.076.076.229.153.457.076.228.076.457.076.761v1.218c0 .38-.076.61-.076.838 0 .228-.076.38-.153.456-.076.153-.076.229-.152.229 0 0 0 .076-.076.076s-.152.076-.304.076c-.077 0-.229-.076-.305-.152a.917.917 0 01-.38-.38c-.153-.153-.305-.381-.457-.686-.152-.305-.38-.609-.533-1.066l-.152-.304c-.076-.152-.229-.457-.38-.838-.153-.38-.305-.685-.458-1.065a1.042 1.042 0 00-.228-.305h-.076s-.076-.076-.152-.076-.152-.076-.229-.076H8.98c-.304 0-.457.076-.533.152l-.076.076v.152c0 .077 0 .153.076.305.38.913.838 1.827 1.294 2.74.457.838.914 1.6 1.218 2.132.38.533.685 1.066 1.066 1.523.38.456.609.76.685.913l.304.305.229.228c.152.152.38.38.685.609.304.228.685.457 1.065.685.381.229.838.38 1.295.533.532.152.99.228 1.446.152h1.142a.69.69 0 00.532-.228l.076-.076c0-.076.077-.076.077-.152v-.305c0-.305 0-.533.076-.761.076-.229.076-.38.152-.533a1.05 1.05 0 01.228-.305l.153-.152h.076c.152-.076.38 0 .533.152.228.153.456.38.608.61.153.228.381.456.686.76.304.305.532.534.685.61l.228.152c.152.076.305.152.533.228.228.076.38.076.533.076l2.588-.076c.228 0 .456-.076.609-.152.152-.076.228-.152.228-.305v-.304c-.152-.152-.152-.228-.152-.305z" fill="#fff"/></svg>