<svg width="17" height="17" fill="none" xmlns="http://www.w3.org/2000/svg"><path d="M7.165 1.978c.644-1.395 2.626-1.395 3.27 0l.99 2.148a1.8 1.8 0 001.423 1.033l2.348.279c1.525.18 2.138 2.066 1.01 3.109l-1.736 1.605a1.8 1.8 0 00-.543 1.673l.46 2.32c.3 1.506-1.304 2.671-2.644 1.92l-2.064-1.154a1.8 1.8 0 00-1.758 0l-2.064 1.155c-1.34.75-2.944-.415-2.645-1.922l.461-2.32a1.8 1.8 0 00-.543-1.672L1.394 8.547C.266 7.504.879 5.619 2.404 5.437l2.348-.278a1.8 1.8 0 001.423-1.033l.99-2.148z" fill="#EEC231"/></svg>