<svg width="28" height="30" fill="none" xmlns="http://www.w3.org/2000/svg"><path d="M19.108 2.769C17.861 1.423 16.12.682 14.198.682c-1.931 0-3.678.736-4.919 2.074-1.254 1.352-1.865 3.19-1.721 5.174.284 3.915 3.263 7.1 6.64 7.1 3.378 0 6.353-3.184 6.642-7.098.145-1.967-.47-3.8-1.732-5.163zm6.365 26.61H2.925a1.984 1.984 0 01-1.55-.713c-.416-.498-.584-1.178-.46-1.865.54-3 2.228-5.518 4.88-7.287 2.356-1.57 5.34-2.434 8.404-2.434s6.048.865 8.404 2.434c2.652 1.768 4.339 4.287 4.88 7.286.124.688-.044 1.367-.46 1.865a1.985 1.985 0 01-1.55.713z" fill="#9A9AAD"/></svg>