<svg width="67" height="73" fill="none" xmlns="http://www.w3.org/2000/svg"><path d="M45.843 5.247C42.71 1.863 38.332 0 33.5 0c-4.857 0-9.25 1.852-12.369 5.215-3.153 3.4-4.69 8.02-4.329 13.01.715 9.843 8.206 17.85 16.698 17.85s15.97-8.005 16.696-17.847c.366-4.944-1.18-9.555-4.353-12.98zm16.002 66.905H5.155a4.993 4.993 0 01-3.898-1.793C.21 69.108-.212 67.4.101 65.671c1.36-7.54 5.601-13.875 12.269-18.321 5.923-3.948 13.427-6.12 21.13-6.12 7.703 0 15.207 2.174 21.13 6.12 6.668 4.445 10.91 10.779 12.27 18.32.312 1.728-.11 3.436-1.157 4.688a4.992 4.992 0 01-3.898 1.794z" fill="#9A9AAD"/></svg>