<svg width="35" height="37" fill="none" xmlns="http://www.w3.org/2000/svg"><path d="M23.994 2.949C22.41 1.238 20.197.295 17.753.295c-2.456 0-4.677.937-6.255 2.637-1.595 1.72-2.371 4.056-2.189 6.58.362 4.977 4.15 9.026 8.444 9.026 4.294 0 8.076-4.048 8.443-9.025.185-2.5-.597-4.832-2.202-6.564zm8.093 33.832H3.419a2.524 2.524 0 01-1.97-.906c-.53-.633-.744-1.497-.586-2.37.688-3.814 2.833-7.017 6.205-9.266 2.995-1.996 6.79-3.095 10.685-3.095 3.895 0 7.69 1.1 10.685 3.095 3.372 2.248 5.517 5.451 6.204 9.264.158.874-.055 1.738-.585 2.371a2.526 2.526 0 01-1.97.907z" fill="#9A9AAD"/></svg>