<svg width="15" height="11" fill="none" xmlns="http://www.w3.org/2000/svg"><path d="M.5 5.504l-.464-.186a.5.5 0 000 .372L.5 5.504zm14.007 0l.465.186a.5.5 0 000-.372l-.465.186zm-7.003 4.502c-2.316 0-3.941-1.152-5.006-2.335a9.373 9.373 0 01-1.45-2.165 5.072 5.072 0 01-.083-.187v-.001L.5 5.504l-.464.186v.002l.002.005a2.31 2.31 0 00.027.062l.078.173a10.373 10.373 0 001.61 2.408c1.187 1.318 3.063 2.667 5.75 2.667v-1zM.5 5.504l.464.186a1.347 1.347 0 01.019-.043c.014-.032.035-.081.065-.145a9.373 9.373 0 011.45-2.165c1.065-1.183 2.69-2.335 5.006-2.335v-1c-2.688 0-4.564 1.348-5.75 2.666a10.373 10.373 0 00-1.61 2.408 6.057 6.057 0 00-.106.235l-.001.005-.001.001.464.187zm7.004-4.502c2.315 0 3.94 1.152 5.006 2.335a9.375 9.375 0 011.45 2.165 4.962 4.962 0 01.08.18l.003.007v.001l.464-.186.465-.186-.001-.002-.002-.005a.679.679 0 00-.026-.062 9.11 9.11 0 00-.39-.773 10.374 10.374 0 00-1.3-1.808C12.067 1.35 10.191.001 7.503.001v1zm7.003 4.502a67.786 67.786 0 01-.464-.186l-.003.008a8.107 8.107 0 01-.358.713 9.375 9.375 0 01-1.172 1.632c-1.065 1.183-2.691 2.335-5.006 2.335v1c2.687 0 4.563-1.348 5.75-2.666a10.374 10.374 0 001.61-2.408 6.23 6.23 0 00.105-.235l.002-.005v-.001l-.464-.187zm-7.003 1.5a1.5 1.5 0 01-1.501-1.5h-1a2.501 2.501 0 002.5 2.501v-1zm1.5-1.5a1.5 1.5 0 01-1.5 1.5v1.001a2.501 2.501 0 002.501-2.501h-1zm-1.5-1.5a1.5 1.5 0 011.5 1.5h1.001a2.501 2.501 0 00-2.501-2.501v1zm0-1.001a2.501 2.501 0 00-2.502 2.501h1a1.5 1.5 0 011.502-1.5V3.002z" fill="#5856D2"/></svg>