<svg width="24" height="13" fill="none" xmlns="http://www.w3.org/2000/svg"><path d="M13.095 12.892s.405-.044.612-.262c.19-.2.183-.578.183-.578s-.026-1.763.808-2.023c.822-.256 1.877 1.705 2.997 2.459.846.57 1.488.445 1.488.445l2.991-.041s1.565-.095.823-1.302c-.061-.1-.433-.894-2.224-2.527-1.877-1.708-1.625-1.432.635-4.388 1.376-1.8 1.926-2.9 1.754-3.37-.164-.45-1.176-.33-1.176-.33l-3.368.02s-.25-.033-.435.076c-.18.106-.298.355-.298.355s-.532 1.392-1.243 2.578c-1.5 2.499-2.1 2.631-2.345 2.476-.57-.362-.428-1.454-.428-2.23 0-2.422.375-3.432-.729-3.693-.366-.087-.635-.144-1.572-.154-1.202-.012-2.218.004-2.795.28-.383.185-.679.595-.498.62.222.028.726.132.994.49.345.46.333 1.495.333 1.495S9.8 6.14 9.138 6.494c-.453.243-1.076-.252-2.413-2.52a20.915 20.915 0 01-1.202-2.446s-.1-.24-.279-.369c-.215-.156-.517-.204-.517-.204l-3.2.02s-.48.013-.657.219c-.157.181-.012.559-.012.559S3.363 7.507 6.2 10.408c2.602 2.658 5.556 2.484 5.556 2.484h1.338z" fill="#fff"/></svg>