<svg width="26" height="26" fill="none" xmlns="http://www.w3.org/2000/svg"><path fill-rule="evenodd" clip-rule="evenodd" d="M12.694 25.683h-.005a12.48 12.48 0 01-5.968-1.52l-6.62 1.736 1.772-6.47a12.465 12.465 0 01-1.667-6.243C.21 6.3 5.811.699 12.694.699a12.407 12.407 0 018.833 3.662 12.411 12.411 0 013.654 8.834c-.003 6.884-5.602 12.485-12.487 12.488zm-5.668-3.78l.379.224a10.363 10.363 0 005.282 1.447h.005c5.72 0 10.376-4.656 10.378-10.379a10.316 10.316 0 00-3.037-7.343 10.308 10.308 0 00-7.337-3.043c-5.725 0-10.381 4.655-10.383 10.378-.001 1.96.547 3.87 1.586 5.523l.247.393-1.048 3.83 3.928-1.03zm11.534-6.019c.218.105.365.176.428.28.078.131.078.756-.182 1.485-.26.729-1.507 1.394-2.106 1.483-.538.08-1.218.114-1.966-.123a17.934 17.934 0 01-1.778-.658c-2.925-1.263-4.902-4.098-5.276-4.634l-.054-.077-.003-.003c-.165-.22-1.271-1.697-1.271-3.225 0-1.437.706-2.19 1.03-2.537l.062-.066c.286-.312.624-.39.832-.39a12.394 12.394 0 01.668.012c.181-.001.408-.003.632.535.086.206.212.513.344.836.269.654.565 1.376.618 1.48.078.156.13.339.026.547l-.044.089c-.078.16-.136.277-.268.432-.053.06-.106.126-.16.192-.108.13-.215.261-.308.354-.157.156-.32.324-.137.637.182.312.808 1.334 1.736 2.161a8.058 8.058 0 002.303 1.456 5.5 5.5 0 01.206.093c.312.156.494.13.676-.078.182-.208.78-.911.988-1.223.208-.313.416-.26.702-.157.286.104 1.82.86 2.132 1.015l.17.084z" fill="#FDFDFD"/></svg>