<svg width="14" height="14" fill="none" xmlns="http://www.w3.org/2000/svg"><path d="M11.959 2.044A6.953 6.953 0 007.03 0C3.177.001.055 3.113.055 6.954a7.03 7.03 0 00.927 3.453l-.976 3.598 3.708-.973a7.133 7.133 0 003.317.827c3.855 0 6.977-3.112 6.977-6.953-.049-1.8-.732-3.55-2.05-4.862zm-1.561 7.39c-.147.39-.83.778-1.171.827a2.737 2.737 0 01-1.074-.049c-.243-.097-.585-.194-.975-.389-1.757-.73-2.879-2.48-2.976-2.625-.098-.098-.732-.924-.732-1.8 0-.875.439-1.264.585-1.458.147-.195.342-.195.488-.195h.342c.097 0 .244-.048.39.292.146.34.488 1.216.537 1.264a.309.309 0 010 .292 1.017 1.017 0 01-.196.292c-.097.097-.195.243-.243.292-.098.097-.196.194-.098.34.098.194.44.73.976 1.215.683.584 1.22.778 1.415.876.195.097.292.048.39-.049.097-.097.439-.486.537-.68.097-.195.243-.147.39-.098a13.12 13.12 0 011.17.584c.196.097.293.145.342.194.05.146.05.486-.097.875z" fill="#5856D2"/></svg>