<svg width="12" height="9" fill="none" xmlns="http://www.w3.org/2000/svg"><path d="M11.824 3.612c0-.26-.043-.56-.043-.906a59.72 59.72 0 00-.13-.991c-.085-.345-.215-.604-.473-.82a1.457 1.457 0 00-.82-.387C9.369.378 7.903.335 5.92.335S2.429.378 1.48.508a1.456 1.456 0 00-.82.388 1.72 1.72 0 00-.474.819 3.46 3.46 0 00-.13.991 6.998 6.998 0 00-.042.906v1.982c0 .26.043.56.043.906.043.345.086.69.13.991.085.345.215.604.473.82.216.215.517.344.82.387.99.13 2.456.173 4.439.173s3.491-.043 4.44-.173c.301-.043.603-.172.819-.388a1.72 1.72 0 00.474-.819 3.46 3.46 0 00.13-.991c.042-.345.042-.647.042-.906V3.612zm-3.62 1.336L4.797 7.06a.33.33 0 01-.215.086c-.086 0-.13 0-.216-.043a.453.453 0 01-.215-.388V2.448c0-.173.086-.302.215-.388a.391.391 0 01.431 0l3.405 2.112c.13.086.216.215.216.345 0 .13-.086.345-.216.43z" fill="#5856D2"/></svg>